<svg width="32" height="32" viewBox="0 0 32 32" fill="none" xmlns="http://www.w3.org/2000/svg">
<circle cx="16" cy="16" r="15.5" fill="#D9FEAA" stroke="#109615"/>
<path d="M16.5 9C15.7796 9 15.1957 9.58399 15.1957 10.3043V15.1957H10.3043C9.58399 15.1957 9 15.7796 9 16.5C9 17.2204 9.58399 17.8043 10.3043 17.8043H15.1957V22.6957C15.1957 23.416 15.7796 24 16.5 24C17.2204 24 17.8043 23.416 17.8043 22.6957V17.8043H22.6957C23.416 17.8043 24 17.2204 24 16.5C24 15.7796 23.416 15.1957 22.6957 15.1957H17.8043V10.3043C17.8043 9.58399 17.2204 9 16.5 9Z" fill="#109615"/>
</svg>
