<svg width="29" height="28" viewBox="0 0 29 28" fill="none" xmlns="http://www.w3.org/2000/svg">
<rect x="0.996094" y="0.5" width="26.6617" height="26.6617" fill="#FFC8C8" stroke="#FF0000"/>
<path d="M12.036 6.28662C11.8006 6.31135 11.6026 6.53296 11.6039 6.77022V8.0598C10.5707 8.05979 9.5281 8.0598 8.4988 8.0598C8.24625 8.07298 8.02843 8.31537 8.04158 8.56858C8.05474 8.82179 8.29649 9.04017 8.54905 9.02699H9.08164L10.4834 20.3663C10.5102 20.5988 10.7273 20.7935 10.9608 20.7944H13.5333C13.7881 20.7981 14.0225 20.5664 14.0225 20.3108C14.0225 20.0553 13.7881 19.8236 13.5333 19.8272H11.3878L10.0513 9.02699H18.623L17.2865 19.8272H15.1411C14.8862 19.8235 14.6518 20.0553 14.6518 20.3108C14.6518 20.5664 14.8862 20.7981 15.1411 20.7944H17.7136C17.9471 20.7928 18.1641 20.5988 18.1909 20.3663L19.5927 9.02699H20.1253C20.3801 9.0306 20.6145 8.7989 20.6145 8.54339C20.6145 8.28788 20.3801 8.05619 20.1253 8.0598H17.0705V6.77022C17.0704 6.51701 16.8407 6.28665 16.5881 6.28662C15.0723 6.28662 13.548 6.28662 12.036 6.28662ZM12.5686 7.25381H16.1058V8.0598H12.5686V7.25381ZM12.4028 10.9513C12.1485 10.9539 11.9202 11.1901 11.9255 11.445V17.5705C11.9219 17.826 12.1529 18.061 12.4078 18.061C12.6627 18.061 12.8937 17.826 12.8901 17.5705V11.445C12.8955 11.1867 12.6604 10.9486 12.4028 10.9513ZM14.3322 10.9513C14.0779 10.9539 13.8495 11.1901 13.8548 11.445V17.5705C13.8512 17.826 14.0823 18.061 14.3372 18.061C14.592 18.061 14.8231 17.826 14.8195 17.5705V11.445C14.8249 11.1867 14.5898 10.9486 14.3322 10.9513ZM16.2615 10.9513C16.0073 10.9539 15.7789 11.1901 15.7842 11.445V17.5705C15.7806 17.826 16.0117 18.061 16.2666 18.061C16.5214 18.061 16.7525 17.826 16.7489 17.5705V11.445C16.7543 11.1867 16.5191 10.9486 16.2615 10.9513Z" fill="#FF0000"/>
</svg>
