<svg width="28" height="28" viewBox="0 0 28 28" fill="none" xmlns="http://www.w3.org/2000/svg">
<rect x="0.5" y="0.5" width="26.6617" height="26.6617" fill="#D9FEAA" stroke="#59960B"/>
<path d="M19.6546 7.85885C19.5833 7.59155 19.4229 7.37771 19.2091 7.25297L16.7856 5.79173C16.3223 5.52443 15.6986 5.66699 15.4134 6.13031L8.57055 17.4638C8.55273 17.5173 8.53491 17.5529 8.51709 17.6064L8.17851 22.204C8.16069 22.3287 8.23197 22.4534 8.33889 22.5069C8.41017 22.5604 8.49927 22.5604 8.58837 22.5425C8.62401 22.5425 8.65965 22.5247 8.67747 22.5069L12.5801 20.0477C12.6157 20.0121 12.6692 19.9765 12.687 19.9408L19.5299 8.58947C19.6902 8.39345 19.7259 8.12615 19.6546 7.85885ZM14.6472 8.67857L15.2709 9.05279L9.94269 17.8737L9.31899 17.4995L14.6472 8.67857ZM15.8411 9.39137L16.4648 9.76559L11.1366 18.6043L10.5129 18.2301L15.8411 9.39137ZM9.74667 21.0813L8.98041 20.618L9.15861 18.1766L11.8138 19.7804L9.74667 21.0813ZM12.3128 19.3171L11.6891 18.9429L16.9994 10.122L17.6231 10.4962L12.3128 19.3171ZM17.9795 9.92597L14.9858 8.10833L15.3956 7.43117L18.3894 9.23099L17.9795 9.92597ZM18.9774 8.26871L18.7458 8.66075L15.7342 6.86093L15.9659 6.46889C16.0728 6.30851 16.2866 6.25505 16.4292 6.36197L18.8527 7.82321C19.0131 7.91231 19.0665 8.10833 18.9774 8.26871Z" fill="#59960B"/>
</svg>
